<?xml version="1.0" encoding="UTF-8"?>
<svg xmlns="http://www.w3.org/2000/svg" viewBox="0 0 500 400" width="500" height="400">
  <rect width="500" height="400" fill="#fafafa"/>
  <text x="250" y="30" text-anchor="middle" font-family="Arial" font-size="18" font-weight="bold" fill="#333">TCP Three-Way Handshake</text>
  <rect x="60" y="60" width="100" height="30" rx="5" fill="#4a90d9"/>
  <text x="110" y="80" text-anchor="middle" font-family="Arial" font-size="14" fill="white" font-weight="bold">CLIENT</text>
  <line x1="110" y1="90" x2="110" y2="350" stroke="#4a90d9" stroke-width="3"/>
  <rect x="340" y="60" width="100" height="30" rx="5" fill="#5cb85c"/>
  <text x="390" y="80" text-anchor="middle" font-family="Arial" font-size="14" fill="white" font-weight="bold">SERVER</text>
  <line x1="390" y1="90" x2="390" y2="350" stroke="#5cb85c" stroke-width="3"/>
  <line x1="115" y1="130" x2="385" y2="160" stroke="#e74c3c" stroke-width="2" marker-end="url(#arr)"/>
  <rect x="180" y="125" width="140" height="25" rx="3" fill="#e74c3c"/>
  <text x="250" y="142" text-anchor="middle" font-family="Arial" font-size="12" fill="white" font-weight="bold">SYN (seq=x)</text>
  <line x1="385" y1="200" x2="115" y2="230" stroke="#f39c12" stroke-width="2" marker-end="url(#arr)"/>
  <rect x="150" y="195" width="200" height="25" rx="3" fill="#f39c12"/>
  <text x="250" y="212" text-anchor="middle" font-family="Arial" font-size="12" fill="white" font-weight="bold">SYN-ACK (seq=y, ack=x+1)</text>
  <line x1="115" y1="270" x2="385" y2="300" stroke="#27ae60" stroke-width="2" marker-end="url(#arr)"/>
  <rect x="180" y="265" width="140" height="25" rx="3" fill="#27ae60"/>
  <text x="250" y="282" text-anchor="middle" font-family="Arial" font-size="12" fill="white" font-weight="bold">ACK (ack=y+1)</text>
  <rect x="150" y="330" width="200" height="25" rx="5" fill="#2ecc71" opacity="0.2" stroke="#27ae60"/>
  <text x="250" y="347" text-anchor="middle" font-family="Arial" font-size="12" fill="#27ae60" font-weight="bold">CONNECTION ESTABLISHED</text>
  <text x="250" y="385" text-anchor="middle" font-family="Arial" font-size="9" fill="#999">Week 2 — Socket Programming | NETWORKING class</text>
  <defs><marker id="arr" markerWidth="10" markerHeight="10" refX="9" refY="3" orient="auto"><path d="M0,0 L0,6 L9,3 z" fill="#666"/></marker></defs>
</svg>
