<?xml version="1.0" encoding="UTF-8"?>
<svg xmlns="http://www.w3.org/2000/svg" viewBox="0 0 700 350" width="700" height="350">
  <defs>
    <marker id="arrow" markerWidth="10" markerHeight="7" refX="9" refY="3.5" orient="auto">
      <polygon points="0 0, 10 3.5, 0 7" fill="#4a5568"/>
    </marker>
    <marker id="arrowBlue" markerWidth="10" markerHeight="7" refX="9" refY="3.5" orient="auto">
      <polygon points="0 0, 10 3.5, 0 7" fill="#3182ce"/>
    </marker>
    <marker id="arrowGreen" markerWidth="10" markerHeight="7" refX="9" refY="3.5" orient="auto">
      <polygon points="0 0, 10 3.5, 0 7" fill="#38a169"/>
    </marker>
  </defs>
  <text x="350" y="25" font-family="Arial, sans-serif" font-size="16" font-weight="bold" text-anchor="middle" fill="#2d3748">DNS Resolution Hierarchy — Week 11</text>
  <rect x="20" y="140" width="90" height="50" rx="6" fill="#ebf8ff" stroke="#3182ce" stroke-width="2"/>
  <text x="65" y="170" font-family="Arial, sans-serif" font-size="12" font-weight="bold" text-anchor="middle" fill="#2b6cb0">Client</text>
  <rect x="150" y="140" width="100" height="50" rx="6" fill="#e6fffa" stroke="#38a169" stroke-width="2"/>
  <text x="200" y="162" font-family="Arial, sans-serif" font-size="11" font-weight="bold" text-anchor="middle" fill="#276749">Local</text>
  <text x="200" y="178" font-family="Arial, sans-serif" font-size="11" font-weight="bold" text-anchor="middle" fill="#276749">Resolver</text>
  <rect x="300" y="50" width="100" height="45" rx="6" fill="#fefcbf" stroke="#d69e2e" stroke-width="2"/>
  <text x="350" y="70" font-family="Arial, sans-serif" font-size="11" font-weight="bold" text-anchor="middle" fill="#975a16">Root DNS</text>
  <text x="350" y="85" font-family="Arial, sans-serif" font-size="9" text-anchor="middle" fill="#975a16">( . )</text>
  <rect x="440" y="50" width="100" height="45" rx="6" fill="#fed7d7" stroke="#e53e3e" stroke-width="2"/>
  <text x="490" y="70" font-family="Arial, sans-serif" font-size="11" font-weight="bold" text-anchor="middle" fill="#c53030">TLD DNS</text>
  <text x="490" y="85" font-family="Arial, sans-serif" font-size="9" text-anchor="middle" fill="#c53030">(.com, .org)</text>
  <rect x="580" y="50" width="100" height="45" rx="6" fill="#e9d8fd" stroke="#805ad5" stroke-width="2"/>
  <text x="630" y="70" font-family="Arial, sans-serif" font-size="10" font-weight="bold" text-anchor="middle" fill="#6b46c1">Authoritative</text>
  <text x="630" y="85" font-family="Arial, sans-serif" font-size="9" text-anchor="middle" fill="#6b46c1">(example.com)</text>
  <path d="M 110 165 L 145 165" stroke="#3182ce" stroke-width="2" marker-end="url(#arrowBlue)" fill="none"/>
  <path d="M 250 155 L 295 80" stroke="#3182ce" stroke-width="1.5" marker-end="url(#arrowBlue)" fill="none"/>
  <path d="M 250 155 L 435 80" stroke="#3182ce" stroke-width="1.5" marker-end="url(#arrowBlue)" fill="none"/>
  <path d="M 250 155 L 575 80" stroke="#3182ce" stroke-width="1.5" marker-end="url(#arrowBlue)" fill="none"/>
  <path d="M 145 175 L 110 175" stroke="#38a169" stroke-width="2" marker-end="url(#arrowGreen)" fill="none"/>
  <path d="M 305 90 L 245 165" stroke="#38a169" stroke-width="1.5" marker-end="url(#arrowGreen)" fill="none"/>
  <path d="M 445 90 L 255 165" stroke="#38a169" stroke-width="1.5" marker-end="url(#arrowGreen)" fill="none"/>
  <path d="M 585 90 L 255 165" stroke="#38a169" stroke-width="1.5" marker-end="url(#arrowGreen)" fill="none"/>
  <rect x="160" y="210" width="80" height="35" rx="4" fill="#f0fff4" stroke="#9ae6b4" stroke-width="1" stroke-dasharray="3,3"/>
  <text x="200" y="232" font-family="Arial, sans-serif" font-size="9" text-anchor="middle" fill="#48bb78">Cache</text>
  <rect x="20" y="270" width="660" height="70" rx="4" fill="#f7fafc" stroke="#e2e8f0" stroke-width="1"/>
  <text x="40" y="290" font-family="Arial, sans-serif" font-size="11" font-weight="bold" fill="#4a5568">Resolution Steps:</text>
  <text x="40" y="308" font-family="Arial, sans-serif" font-size="9" fill="#718096">1. Client queries local resolver</text>
  <text x="40" y="322" font-family="Arial, sans-serif" font-size="9" fill="#718096">2-3. Resolver asks root DNS</text>
  <text x="250" y="308" font-family="Arial, sans-serif" font-size="9" fill="#718096">4-5. Resolver asks TLD DNS</text>
  <text x="250" y="322" font-family="Arial, sans-serif" font-size="9" fill="#718096">6-7. Resolver asks authoritative</text>
  <text x="480" y="315" font-family="Arial, sans-serif" font-size="9" fill="#718096">8. Returns to client</text>
  <text x="620" y="330" font-family="Arial, sans-serif" font-size="9" fill="#a0aec0">Port: 53</text>
</svg>
